<?xml version="1.0" encoding="UTF-8"?>
<svg id="TaVyro_Logo" xmlns="http://www.w3.org/2000/svg" viewBox="0 0 145 28">
  <defs>
    <style>
      .logo-text { fill: #212529; font-family: 'Segoe UI', Roboto, 'Helvetica Neue', Arial, sans-serif; font-size: 24px; font-weight: 600; }
      .logo-icon { fill: #4e663f; }
      .logo-accent { fill: #7ec1dd; }
      .tagline { fill: #6c757d; font-size: 6px; font-family: Arial, sans-serif; }
    </style>
  </defs>
  
  <!-- Vereinfachtes Logo-Symbol -->
  <g transform="translate(0, 5)">
    <path class="st54" d="M11,4.8c-.35.22-.69.51-.97.73-1.79,1.43-3.38,3.08-4.79,4.85-1.68,2.1-3.12,4.38-4.35,6.68h0s0,0,0,0c-1.23-2.3-2.67-4.57-4.35-6.68C3.57,7.98,2,6.33.21,4.91c-.28-.22-.62-.51-.97-.73-.29.57-.46,1.22-.46,1.9,0,1.01.36,1.94.95,2.66,0,0,.01.02.02.02.24.29.47.54.59.67,3.26,3.56,5.69,7.82,7.95,11.96.03.08.07.15.12.21,0,0,0,0,0,0h0c.21.3.55.5.95.5,0,0,0,0,0,0s0,0,0,0c.39,0,.74-.2.95-.5h0s0,0,0,0c.05-.07.09-.14.12-.21,2.26-4.14,4.69-8.4,7.95-11.96.12-.13.34-.38.59-.67,0,0,.01-.02.02-.02.59-.73.95-1.65.95-2.66,0-.69-.17-1.33-.46-1.9-.35.22-.69.51-.97.73-1.79,1.43-3.38,3.08-4.79,4.85-1.68,2.1-3.12,4.38-4.35,6.68h0s0,0,0,0c-1.23-2.3-2.67-4.57-4.35-6.68-1.41-1.77-3-3.42-4.79-4.85-.28-.22-.62-.51-.97-.73-.29.57-.46,1.22-.46,1.9,0,1.01.36,1.94.95,2.66,0,0,.01.02.02.02.24.29.47.54.59.67,3.26,3.56,5.69,7.82,7.95,11.96.03.08.07.15.12.21,0,0,0,0,0,0h0c.21.3.55.5.95.5,0,0,0,0,0,0s0,0,0,0c.39,0,.74-.2.95-.5h0s0,0,0,0c.05-.07.09-.14.12-.21,2.26-4.14,4.69-8.4,7.95-11.96.12-.13.34-.38.59-.67,0,0,.01-.02.02-.02.59-.73.95-1.65.95-2.66,0-.69-.17-1.33-.46-1.9-.35.22-.69.51-.97.73-1.79,1.43-3.38,3.08-4.79,4.85-1.68,2.1-3.12,4.38-4.35,6.68h0s0,0,0,0c-1.23-2.3-2.67-4.57-4.35-6.68-1.41-1.77-3-3.42-4.79-4.85-.28-.22-.62-.51-.97-.73-.29.57-.46,1.22-.46,1.9,0,1.01.36,1.94.95,2.66,0,0,.01.02.02.02.24.29.47.54.59.67,3.26,3.56,5.69,7.82,7.95,11.96.03.08.07.15.12.21,0,0,0,0,0,0h0c.21.3.55.5.95.5,0,0,0,0,0,0s0,0,0,0c.39,0,.74-.2.95-.5h0s0,0,0,0c.05-.07.09-.14.12-.21,2.26-4.14,4.69-8.4,7.95-11.96.12-.13.34-.38.59-.67,0,0,.01-.02.02-.02.59-.73.95-1.65.95-2.66,0-.69-.17-1.33-.46-1.9-.35.22-.69.51-.97.73-1.79,1.43-3.38,3.08-4.79,4.85-1.68,2.1-3.12,4.38-4.35,6.68h0s0,0,0,0c-1.23-2.3-2.67-4.57-4.35-6.68-1.41-1.77-3-3.42-4.79-4.85-.28-.22-.62-.51-.97-.73-.29.57-.46,1.22-.46,1.9,0,1.01.36,1.94.95,2.66,0,0,.01.02.02.02.24.29.47.54.59.67,3.26,3.56,5.69,7.82,7.95,11.96.03.08.07.15.12.21,0,0,0,0,0,0h0c.21.3.55.5.95.5,0,0,0,0,0,0s0,0,0,0c.39,0,.74-.2.95-.5h0s0,0,0,0c.05-.07.09-.14.12-.21,2.26-4.14,4.69-8.4,7.95-11.96.12-.13.34-.38.59-.67,0,0,.01-.02.02-.02.59-.73.95-1.65.95-2.66,0-.69-.17-1.33-.46-1.9-.35.22-.69.51-.97.73-1.79,1.43-3.38,3.08-4.79,4.85-1.68,2.1-3.12,4.38-4.35,6.68h0s0,0,0,0c-1.23-2.3-2.67-4.57-4.35-6.68-1.41-1.77-3-3.42-4.79-4.85-.28-.22-.62-.51-.97-.73-.29.57-.46,1.22-.46,1.9,0,1.01.36,1.94.95,2.66,0,0,.01.02.02.02.24.29.47.54.59.67,3.26,3.56,5.69,7.82,7.95,11.96.03.08.07.15.12.21,0,0,0,0,0,0h0c.21.3.55.5.95.5,0,0,0,0,0,0s0,0,0,0c.39,0,.74-.2.95-.5h0s0,0,0,0c.05-.07.09-.14.12-.21.47-.88.99-1.77,1.59-2.67.05-.08.11-.16.17-.24.02-.05.05-.1.08-.15.5-.75.97-1.41,1.44-2.01,1.37-1.75,2.68-2.95,4.3-4-.53-.5-1.24-.82-2.03-.82h-8.82c-.79,0-1.5.31-2.03.82,1.63,1.05,2.94,2.25,4.3,4,.47.6.94,1.26,1.44,2.01.02.05.05.1.08.15,0,0,0,0,0,0h0c.15.21.39.35.66.35,0,0,0,0,0,0s0,0,0,0c.27,0,.52-.14.66-.35h0s0,0,0,0c.03-.05.06-.1.08-.15-.15-.21-.28-.43-.4-.64Z"/>
  1641|</svg>
